{
    "asset" : {
        "generator" : "Khronos glTF Blender I/O v3.4.50",
        "version" : "2.0"
    },
    "extensionsUsed" : [
        "KHR_materials_transmission",
        "KHR_materials_ior",
        "KHR_materials_volume"
    ],
    "scene" : 0,
    "scenes" : [
        {
            "name" : "Scene",
            "nodes" : [
                0,
                1,
                2
            ]
        }
    ],
    "nodes" : [
        {
            "mesh" : 0,
            "name" : "Cube",
            "scale" : [
                1.7055749893188477,
                1.7055749893188477,
                1.7055749893188477
            ],
            "translation" : [
                0,
                1.735964059829712,
                -7
            ]
        },
        {
            "mesh" : 1,
            "name" : "Suzanne",
            "translation" : [
                0,
                1.735964059829712,
                -7
            ]
        },
        {
            "name" : "_arc_node_",
            "translation" : [
                0,
                0,
                -7
            ]
        }
    ],
    "materials" : [
        {
            "doubleSided" : true,
            "extensions" : {
                "KHR_materials_transmission" : {
                    "transmissionFactor" : 1
                },
                "KHR_materials_ior" : {
                    "ior" : 2.450000047683716
                }
            },
            "name" : "m_glass",
            "pbrMetallicRoughness" : {
                "baseColorFactor" : [
                    0.800000011920929,
                    0.800000011920929,
                    0.800000011920929,
                    1
                ],
                "metallicFactor" : 0,
                "roughnessFactor" : 0.20000000298023224
            }
        },
        {
            "doubleSided" : true,
            "name" : "Material.002",
            "pbrMetallicRoughness" : {
                "baseColorFactor" : [
                    0.800000011920929,
                    0.800000011920929,
                    0.800000011920929,
                    1
                ],
                "roughnessFactor" : 0.19291338324546814
            }
        }
    ],
    "meshes" : [
        {
            "name" : "Cube.001",
            "primitives" : [
                {
                    "attributes" : {
                        "POSITION" : 0,
                        "TEXCOORD_0" : 1,
                        "NORMAL" : 2
                    },
                    "indices" : 3,
                    "material" : 0
                }
            ]
        },
        {
            "name" : "Suzanne",
            "primitives" : [
                {
                    "attributes" : {
                        "POSITION" : 4,
                        "TEXCOORD_0" : 5,
                        "NORMAL" : 6
                    },
                    "indices" : 7,
                    "material" : 1
                }
            ]
        }
    ],
    "accessors" : [
        {
            "bufferView" : 0,
            "componentType" : 5126,
            "count" : 4611,
            "max" : [
                1.1376529932022095,
                0.029240591451525688,
                1.1376529932022095
            ],
            "min" : [
                -1.1376529932022095,
                -0.9969935417175293,
                -1.1376529932022095
            ],
            "type" : "VEC3"
        },
        {
            "bufferView" : 1,
            "componentType" : 5126,
            "count" : 4611,
            "type" : "VEC2"
        },
        {
            "bufferView" : 2,
            "componentType" : 5126,
            "count" : 4611,
            "type" : "VEC3"
        },
        {
            "bufferView" : 3,
            "componentType" : 5123,
            "count" : 26496,
            "type" : "SCALAR"
        },
        {
            "bufferView" : 4,
            "componentType" : 5126,
            "count" : 8157,
            "max" : [
                1.328185796737671,
                0.9392362236976624,
                0.8224414587020874
            ],
            "min" : [
                -1.328185796737671,
                -0.971822202205658,
                -0.7782661318778992
            ],
            "type" : "VEC3"
        },
        {
            "bufferView" : 5,
            "componentType" : 5126,
            "count" : 8157,
            "type" : "VEC2"
        },
        {
            "bufferView" : 6,
            "componentType" : 5126,
            "count" : 8157,
            "type" : "VEC3"
        },
        {
            "bufferView" : 7,
            "componentType" : 5123,
            "count" : 47232,
            "type" : "SCALAR"
        }
    ],
    "bufferViews" : [
        {
            "buffer" : 0,
            "byteLength" : 55332,
            "byteOffset" : 0,
            "target" : 34962
        },
        {
            "buffer" : 0,
            "byteLength" : 36888,
            "byteOffset" : 55332,
            "target" : 34962
        },
        {
            "buffer" : 0,
            "byteLength" : 55332,
            "byteOffset" : 92220,
            "target" : 34962
        },
        {
            "buffer" : 0,
            "byteLength" : 52992,
            "byteOffset" : 147552,
            "target" : 34963
        },
        {
            "buffer" : 0,
            "byteLength" : 97884,
            "byteOffset" : 200544,
            "target" : 34962
        },
        {
            "buffer" : 0,
            "byteLength" : 65256,
            "byteOffset" : 298428,
            "target" : 34962
        },
        {
            "buffer" : 0,
            "byteLength" : 97884,
            "byteOffset" : 363684,
            "target" : 34962
        },
        {
            "buffer" : 0,
            "byteLength" : 94464,
            "byteOffset" : 461568,
            "target" : 34963
        }
    ],
    "buffers" : [
        {
            "byteLength" : 556032,
            "uri" : "data:application/octet-stream;base64,"
        }
    ]
}
